<svg width="45" height="46" viewBox="0 0 45 46" fill="none" xmlns="http://www.w3.org/2000/svg">
<path d="M22.6824 19.7516C21.923 19.7516 21.2058 19.5688 20.6011 19.2453C20.3902 19.1328 20.1792 19.3719 20.3058 19.5688C20.812 20.3422 21.6839 20.8625 22.6824 20.8625C23.6808 20.8625 24.5527 20.3422 25.0589 19.5688C25.1855 19.3719 24.9605 19.1469 24.7636 19.2453C24.1589 19.5688 23.4558 19.7516 22.6824 19.7516ZM21.5011 17.4031L22.2464 14.9984C22.4011 14.4781 23.1605 14.4781 23.3152 14.9984L24.0605 17.4031C24.2152 17.8953 23.8495 18.4016 23.3292 18.4016H22.2324C21.712 18.4016 21.3464 17.8953 21.5011 17.4031ZM19.2427 13.4375C18.3005 13.4375 17.513 14.0844 17.288 14.9562C17.2317 15.2094 17.4286 15.4484 17.6817 15.4484H18.3089C18.2578 15.2584 18.2511 15.0591 18.2893 14.866C18.3275 14.6729 18.4096 14.4912 18.5292 14.3349C18.6488 14.1786 18.8027 14.0519 18.9791 13.9646C19.1555 13.8772 19.3496 13.8316 19.5464 13.8312C19.7431 13.8322 19.9369 13.8782 20.1129 13.9657C20.289 14.0532 20.4427 14.1798 20.5622 14.336C20.6817 14.4922 20.7638 14.6736 20.8023 14.8665C20.8407 15.0593 20.8344 15.2584 20.7839 15.4484H20.888C21.0989 15.4484 21.2536 15.2656 21.2114 15.0547C21.0286 14.1406 20.213 13.4375 19.2427 13.4375ZM26.1192 13.4375C27.0614 13.4375 27.8489 14.0844 28.0739 14.9562C28.1302 15.2094 27.9474 15.4484 27.6942 15.4484H27.0699C27.121 15.2584 27.1277 15.0591 27.0895 14.866C27.0513 14.6729 26.9692 14.4912 26.8496 14.3349C26.73 14.1786 26.576 14.0519 26.3997 13.9646C26.2233 13.8772 26.0292 13.8316 25.8324 13.8312C25.6638 13.8294 25.4965 13.8612 25.3404 13.9248C25.1843 13.9885 25.0425 14.0827 24.9233 14.2019C24.8041 14.3211 24.7099 14.4629 24.6462 14.619C24.5826 14.7751 24.5508 14.9424 24.5527 15.1109C24.5527 15.2234 24.5667 15.3359 24.5949 15.4484H24.488C24.4389 15.4496 24.3902 15.4396 24.3455 15.4191C24.3009 15.3987 24.2615 15.3683 24.2303 15.3304C24.1991 15.2924 24.177 15.2479 24.1656 15.2001C24.1542 15.1524 24.1539 15.1026 24.1645 15.0547C24.3333 14.1406 25.1349 13.4375 26.1192 13.4375Z" fill="white"/>
<path d="M19.5472 14.3792C19.6733 14.3779 19.7976 14.4095 19.9078 14.4708C20.0179 14.5322 20.1102 14.6212 20.1755 14.7291C20.2408 14.837 20.2769 14.96 20.2801 15.0861C20.2834 15.2121 20.2537 15.3369 20.1941 15.448H18.9004C18.8417 15.336 18.8129 15.2107 18.8168 15.0843C18.8208 14.9579 18.8573 14.8347 18.9229 14.7266C18.9403 14.7536 18.9634 14.7766 18.9904 14.7939C19.0175 14.8113 19.048 14.8227 19.0798 14.8272C19.1117 14.8318 19.1441 14.8295 19.175 14.8205C19.2059 14.8115 19.2345 14.7959 19.2588 14.7749C19.2832 14.7539 19.3028 14.7279 19.3162 14.6987C19.3297 14.6695 19.3367 14.6377 19.3369 14.6055C19.337 14.5734 19.3303 14.5415 19.3171 14.5122C19.3039 14.4829 19.2845 14.4567 19.2604 14.4355C19.3513 14.3978 19.4488 14.3787 19.5472 14.3792ZM25.8332 14.3792C25.7418 14.379 25.6513 14.3957 25.566 14.4284C25.592 14.4496 25.6129 14.4764 25.6272 14.5067C25.6415 14.537 25.6489 14.5701 25.6488 14.6036C25.6487 14.6372 25.6411 14.6703 25.6265 14.7005C25.612 14.7307 25.5908 14.7572 25.5647 14.7782C25.5386 14.7992 25.5081 14.8141 25.4754 14.8218C25.4428 14.8295 25.4089 14.8298 25.3761 14.8227C25.3433 14.8156 25.3126 14.8013 25.286 14.7807C25.2595 14.7602 25.238 14.734 25.2229 14.7041C25.1507 14.8134 25.1092 14.9402 25.1028 15.071C25.0963 15.2019 25.1252 15.3321 25.1863 15.448H26.48C26.5397 15.3369 26.5693 15.2121 26.5661 15.0861C26.5628 14.96 26.5268 14.837 26.4615 14.7291C26.3962 14.6212 26.3039 14.5322 26.1937 14.4708C26.0835 14.4095 25.9593 14.3779 25.8332 14.3792ZM17.7669 12.4892C17.687 12.489 17.6091 12.4639 17.5441 12.4174C17.479 12.3709 17.4301 12.3053 17.4039 12.2298C17.3778 12.1542 17.3759 12.0724 17.3983 11.9957C17.4208 11.919 17.4665 11.8511 17.5293 11.8016C18.3068 11.2571 19.2598 11.0228 20.2011 11.1449C20.2757 11.1543 20.3459 11.1854 20.403 11.2343C20.4601 11.2831 20.5017 11.3476 20.5226 11.4198C20.5435 11.492 20.5429 11.5687 20.5207 11.6406C20.4986 11.7124 20.456 11.7762 20.398 11.8241C20.3588 11.8554 20.3137 11.8787 20.2655 11.8924C20.2172 11.9062 20.1666 11.9102 20.1168 11.9042C19.3765 11.8117 18.6277 11.9889 18.0074 12.4034C17.9393 12.4585 17.8545 12.4888 17.7669 12.4892ZM27.6233 12.4892C27.539 12.4892 27.4546 12.4611 27.3885 12.4091C26.7665 11.9985 26.0191 11.8216 25.2791 11.9099C25.1797 11.9177 25.081 11.8867 25.004 11.8233C24.927 11.7599 24.8775 11.6692 24.866 11.5701C24.8545 11.471 24.8819 11.3713 24.9425 11.292C25.003 11.2127 25.0919 11.1599 25.1905 11.1449C26.1317 11.0253 27.0838 11.2593 27.8624 11.8016C27.9252 11.8512 27.971 11.9192 27.9934 11.996C28.0159 12.0729 28.0138 12.1548 27.9875 12.2304C27.9612 12.3061 27.912 12.3716 27.8467 12.418C27.7815 12.4644 27.7034 12.4893 27.6233 12.4892Z" fill="white"/>
<path d="M11.4469 2.60938C10.44 2.60938 9.61876 3.43062 9.61876 4.4375C9.61876 5.44438 10.44 6.26562 11.4469 6.26562H14.0428L13.6913 6.99687C13.5084 7.21062 13.3453 7.44687 13.2061 7.7L13.2019 7.70844C12.8558 8.36669 12.6964 9.10704 12.7407 9.84938C12.7851 10.5917 13.0316 11.3078 13.4536 11.9202L13.4564 11.9258C13.6252 12.1677 13.7095 12.4489 13.7095 12.7625V13.1422C13.3985 13.4285 13.1503 13.7764 12.9809 14.1637C12.8114 14.5511 12.7243 14.9694 12.7252 15.3922C12.7252 16.2809 13.1063 17.0797 13.7095 17.6366V18.6266C13.7095 20.1791 14.6616 21.5727 16.1002 22.1323C16.2309 22.3433 16.3716 22.543 16.5234 22.7342C15.0311 23.3289 13.6358 24.1427 12.3834 25.1488C12.3035 25.1765 12.2291 25.2184 12.1641 25.2725C9.63452 27.3834 7.80786 30.2146 6.92719 33.3894C6.52847 34.8139 6.3269 36.2864 6.32813 37.7656V42.6875C6.32813 42.874 6.40221 43.0528 6.53407 43.1847C6.66593 43.3165 6.84478 43.3906 7.03126 43.3906H37.9547C38.1412 43.3906 38.32 43.3165 38.4519 43.1847C38.5837 43.0528 38.6578 42.874 38.6578 42.6875V37.7459C38.6603 35.469 38.1799 33.2175 37.2483 31.1399C36.3168 29.0623 34.9553 27.2058 33.2536 25.693C31.9594 24.5368 30.4874 23.5966 28.8942 22.9086C29.1389 22.6231 29.3583 22.3152 29.5481 21.9875C30.1693 21.6729 30.6911 21.1922 31.0555 20.5989C31.42 20.0056 31.6128 19.3229 31.6125 18.6266V17.6492C31.9273 17.3625 32.1787 17.0132 32.3507 16.6237C32.5228 16.2342 32.6116 15.8131 32.6116 15.3873C32.6116 14.9615 32.5228 14.5404 32.3507 14.1509C32.1787 13.7614 31.9273 13.4121 31.6125 13.1253V12.7625C31.6125 12.477 31.7053 12.1817 31.8797 11.9286C32.3972 11.2029 32.6582 10.3256 32.6215 9.43505C32.5848 8.54454 32.2526 7.6916 31.6772 7.01094L31.3172 6.26562H33.2016V16.5622C32.8461 16.8763 32.6201 17.3113 32.5673 17.7827C32.5146 18.2541 32.6389 18.7282 32.9161 19.1131C32.7953 19.2838 32.7028 19.4728 32.6419 19.6728L32.6363 19.6925L31.8206 22.6555C31.7684 22.8386 31.7594 23.0314 31.7943 23.2187C31.8293 23.4059 31.9072 23.5825 32.022 23.7345C32.1368 23.8865 32.2853 24.0098 32.4558 24.0946C32.6263 24.1795 32.8142 24.2236 33.0047 24.2234H35.9156C36.7327 24.2234 37.3219 23.4416 37.0997 22.6569L36.2981 19.6953C36.2368 19.4889 36.1418 19.2941 36.0169 19.1187C36.2961 18.7333 36.4216 18.2576 36.3688 17.7846C36.316 17.3115 36.0888 16.8752 35.7314 16.5608V4.4375C35.7319 4.37778 35.7248 4.31824 35.7103 4.26031C35.6654 3.80861 35.4544 3.38967 35.1182 3.08466C34.782 2.77965 34.3446 2.61028 33.8906 2.60938H11.4469ZM30.6127 16.6564C30.354 16.872 30.0355 17.0031 29.7 17.0319L29.0925 17.0825L28.9519 19.4731C28.7941 20.6425 28.2179 21.7151 27.3301 22.4923C26.4422 23.2695 25.3028 23.6987 24.1228 23.7003H21.4509C20.2783 23.7 19.1452 23.277 18.2592 22.5088C17.3733 21.7407 16.794 20.6788 16.6275 19.5181L16.4419 17.0333H15.7838C15.3653 17.0326 14.9628 16.8725 14.6582 16.5856C14.3536 16.2986 14.1697 15.9064 14.1441 15.4887C14.1185 15.071 14.253 14.6593 14.5202 14.3372C14.7875 14.0152 15.1674 13.8071 15.5827 13.7553L16.2436 13.6752L16.1213 11.8639C16.1331 10.8167 16.5446 9.81365 17.2716 9.05984L20.4103 9.57313H20.4202C21.503 9.73344 22.5998 9.77562 23.6925 9.69828C24.3989 10.1976 25.242 10.4671 26.107 10.4703H28.0758C28.4371 10.4868 28.7775 10.6446 29.0235 10.9098C29.2695 11.175 29.4013 11.5263 29.3906 11.8878L29.3077 13.6583L29.9011 13.7834C30.2001 13.8472 30.4755 13.993 30.6962 14.2045C30.917 14.416 31.0745 14.6848 31.151 14.9808C31.2275 15.2768 31.2201 15.5883 31.1294 15.8803C31.0388 16.1723 30.8686 16.4332 30.638 16.6339L30.6127 16.6564ZM16.1719 35.2906C16.1719 34.8969 16.4813 34.5875 16.875 34.5875C17.2688 34.5875 17.5781 34.8969 17.5781 35.2906V41.9844H16.1719V35.2906ZM21.7969 35.2906C21.7969 34.8969 22.1063 34.5875 22.5 34.5875C22.8938 34.5875 23.2031 34.8969 23.2031 35.2906V41.9844H21.7969V35.2906ZM27.4219 35.2906C27.4219 34.8969 27.7313 34.5875 28.125 34.5875C28.5188 34.5875 28.8281 34.8969 28.8281 35.2906V41.9844H27.4219V35.2906ZM21.1922 26.2063C20.8014 25.8531 20.4704 25.439 20.212 24.98C20.617 25.063 21.0319 25.1066 21.4509 25.1066H24.1228C24.3211 25.1066 24.5194 25.0953 24.7134 25.077C24.4661 25.4981 24.156 25.8788 23.7938 26.2063L22.8797 27.0219C22.6547 27.2188 22.3313 27.2188 22.1063 27.0219L21.1922 26.2063ZM34.2281 17.5494C34.322 17.5007 34.4037 17.4315 34.4672 17.3469C34.5306 17.4315 34.6124 17.5007 34.7063 17.5494C34.7909 17.5944 34.861 17.6624 34.9085 17.7457C34.956 17.829 34.9788 17.924 34.9744 18.0198C34.97 18.1155 34.9385 18.208 34.8835 18.2866C34.8286 18.3651 34.7525 18.4264 34.6641 18.4634C34.5922 18.4926 34.5257 18.5335 34.4672 18.5844C34.4096 18.5332 34.3441 18.4919 34.2731 18.462C34.1849 18.4252 34.109 18.3641 34.0541 18.2858C33.9991 18.2076 33.9675 18.1154 33.9628 18.0199C33.9581 17.9244 33.9805 17.8296 34.0275 17.7463C34.0744 17.663 34.144 17.5947 34.2281 17.5494ZM34.2703 19.7614C34.3417 19.7321 34.4077 19.6912 34.4658 19.6405C34.5226 19.6908 34.5872 19.7317 34.657 19.7614C34.7878 19.8162 34.8961 19.9302 34.9467 20.0778L35.6864 22.8172H33.2353L33.9891 20.075C34.0102 20.0053 34.0463 19.9412 34.0949 19.887C34.1435 19.8328 34.2034 19.7899 34.2703 19.7614Z" fill="white"/>
</svg>
