<svg width="62" height="62" viewBox="0 0 62 62" fill="none" xmlns="http://www.w3.org/2000/svg">
<path d="M31 3.875C23.833 3.96196 16.9841 6.84769 11.9159 11.9159C6.84769 16.9841 3.96196 23.833 3.875 31C3.96196 38.167 6.84769 45.0159 11.9159 50.0841C16.9841 55.1523 23.833 58.038 31 58.125C38.167 58.038 45.0159 55.1523 50.0841 50.0841C55.1523 45.0159 58.038 38.167 58.125 31C58.038 23.833 55.1523 16.9841 50.0841 11.9159C45.0159 6.84769 38.167 3.96196 31 3.875ZM46.5 32.9375H32.9375V46.5H29.0625V32.9375H15.5V29.0625H29.0625V15.5H32.9375V29.0625H46.5V32.9375Z" fill="black"/>
</svg>
