<svg width="60" height="43" viewBox="0 0 60 43" fill="none" xmlns="http://www.w3.org/2000/svg">
<path d="M43.9746 20.394C42.6033 20.394 41.6059 20.207 40.9826 19.833C39.4866 18.9603 38.1776 17.776 37.0556 16.28C35.9336 14.9087 35.3726 12.914 35.3726 10.296C35.622 6.30665 37.1803 3.56398 40.0476 2.06799C42.541 0.821316 45.9069 0.197983 50.1456 0.197983C53.013 0.197983 55.3193 1.25765 57.0646 3.37698C58.81 5.49632 59.6826 8.17665 59.6826 11.418C59.6826 15.158 58.623 19.459 56.5036 24.321C54.2596 29.3076 52.0779 33.11 49.9586 35.728C48.4626 37.7227 46.655 39.4057 44.5356 40.777C42.4163 42.1483 40.6086 42.834 39.1126 42.834C36.2453 42.834 34.4999 42.3977 33.8766 41.525C33.1286 40.6523 32.7546 38.9693 32.7546 36.476C32.7546 35.8527 33.3779 34.9177 34.6246 33.671C35.7466 32.549 36.4323 31.8633 36.6816 31.614C38.6763 29.8687 39.923 28.622 40.4216 27.874C42.5409 24.882 43.9746 22.3887 44.7226 20.394H43.9746ZM11.6236 20.394C10.1276 20.394 9.06795 20.207 8.44461 19.833C6.94861 18.8357 5.70195 17.6513 4.70462 16.28C3.58261 14.9087 3.02161 12.914 3.02161 10.296C3.27095 6.30665 4.76695 3.56398 7.50961 2.06799C10.0029 0.821316 13.3689 0.197983 17.6076 0.197983C20.4749 0.197983 22.7813 1.25765 24.5266 3.37698C26.2719 5.49632 27.1446 8.17665 27.1446 11.418C27.1446 15.158 26.0849 19.459 23.9656 24.321C21.7216 29.3076 19.5399 33.11 17.4206 35.728C15.7999 37.7227 13.9923 39.4057 11.9976 40.777C10.0029 42.1483 8.25761 42.834 6.76162 42.834C3.76962 42.834 1.96195 42.3977 1.33862 41.525C0.590614 40.6523 0.216614 38.9693 0.216614 36.476C0.216614 35.4787 1.65028 33.7957 4.51761 31.427C5.01628 30.9283 5.63961 30.305 6.38762 29.557C7.13561 28.9337 7.69661 28.3727 8.07062 27.874C9.94062 25.256 11.3119 22.7626 12.1846 20.394H11.6236Z" fill="#41A94E" fill-opacity="0.9"/>
</svg>
