<svg width="44" height="44" viewBox="0 0 44 44" fill="none" xmlns="http://www.w3.org/2000/svg">
<rect x="0.5" y="0.5" width="43" height="43" rx="21.5" stroke="white"/>
<path d="M29.3823 34.2495C28.3148 34.2495 26.8153 33.8634 24.5698 32.6089C21.8393 31.0776 19.7272 29.6639 17.0115 26.9553C14.393 24.3385 13.1188 22.6443 11.3355 19.3991C9.32076 15.735 9.6642 13.8144 10.0481 12.9936C10.5053 12.0125 11.1801 11.4257 12.0524 10.8432C12.5478 10.5186 13.0721 10.2404 13.6187 10.012C13.6733 9.98848 13.7242 9.96606 13.7696 9.94582C14.0403 9.82387 14.4505 9.63957 14.97 9.83645C15.3167 9.9666 15.6262 10.2329 16.1108 10.7114C17.1044 11.6914 18.4623 13.874 18.9633 14.9459C19.2996 15.6683 19.5222 16.1452 19.5227 16.68C19.5227 17.3062 19.2077 17.7891 18.8255 18.3103C18.7538 18.4082 18.6827 18.5017 18.6138 18.5925C18.1976 19.1393 18.1063 19.2974 18.1665 19.5796C18.2884 20.1467 19.1979 21.8349 20.6925 23.3262C22.1871 24.8175 23.8266 25.6696 24.3959 25.791C24.6901 25.8539 24.8515 25.7587 25.4158 25.3278C25.4968 25.266 25.5799 25.202 25.6669 25.138C26.2498 24.7043 26.7103 24.3975 27.3217 24.3975H27.325C27.8571 24.3975 28.3126 24.6283 29.0673 25.0089C30.0517 25.5055 32.2999 26.8459 33.2859 27.8407C33.7655 28.3241 34.033 28.6325 34.1637 28.9787C34.3605 29.4999 34.1751 29.9084 34.0543 30.1818C34.034 30.2272 34.0116 30.277 33.9881 30.3322C33.7579 30.8778 33.478 31.401 33.1519 31.8952C32.5706 32.7647 31.9816 33.4379 30.9983 33.8957C30.4934 34.1345 29.9408 34.2555 29.3823 34.2495Z" fill="white"/>
</svg>
