<svg width="91" height="90" viewBox="0 0 91 90" fill="none" xmlns="http://www.w3.org/2000/svg">
<rect x="0.5" width="90" height="90" rx="20" fill="#BE0F12" fill-opacity="0.4"/>
<g clip-path="url(#clip0_106_69)">
<path d="M65.6724 32.5174C65.406 31.4614 64.1004 30.5998 62.7684 30.5998H46.4148C45.0852 30.5998 43.2228 29.8366 42.282 28.903L40.8516 27.4918C39.9108 26.5582 38.0508 25.7998 36.7212 25.7998H28.9092C27.5772 25.7998 26.3676 26.8726 26.2212 28.1854L25.5204 35.3998H66.1548L65.6724 32.5174ZM68.0892 37.7998H22.9116C22.7177 37.7999 22.526 37.8406 22.3488 37.9191C22.1716 37.9976 22.0127 38.1122 21.8823 38.2557C21.7519 38.3992 21.653 38.5683 21.5917 38.7522C21.5305 38.9361 21.5084 39.1308 21.5268 39.3238L23.742 62.5294C23.7861 62.9865 23.9988 63.4107 24.3387 63.7195C24.6785 64.0283 25.1212 64.1995 25.5804 64.1998H65.4204C65.8796 64.1995 66.3222 64.0283 66.6621 63.7195C67.0019 63.4107 67.2147 62.9865 67.2588 62.5294L69.474 39.3238C69.4924 39.1308 69.4702 38.9361 69.409 38.7522C69.3478 38.5683 69.2488 38.3992 69.1185 38.2557C68.9881 38.1122 68.8292 37.9976 68.652 37.9191C68.4747 37.8406 68.283 37.7999 68.0892 37.7998Z" fill="#BE0F12"/>
</g>
<defs>
<clipPath id="clip0_106_69">
<rect width="48" height="48" fill="white" transform="translate(21.5 21)"/>
</clipPath>
</defs>
</svg>
