<svg width="91" height="90" viewBox="0 0 91 90" fill="none" xmlns="http://www.w3.org/2000/svg">
<rect x="0.5" width="90" height="90" rx="20" fill="#11C732" fill-opacity="0.4"/>
<g clip-path="url(#clip0_106_88)">
<path d="M45.5 32C47.3565 32 49.137 32.7375 50.4497 34.0503C51.7625 35.363 52.5 37.1435 52.5 39C52.5 40.8565 51.7625 42.637 50.4497 43.9497C49.137 45.2625 47.3565 46 45.5 46C43.6435 46 41.863 45.2625 40.5503 43.9497C39.2375 42.637 38.5 40.8565 38.5 39C38.5 37.1435 39.2375 35.363 40.5503 34.0503C41.863 32.7375 43.6435 32 45.5 32ZM31.5 37C32.62 37 33.66 37.3 34.56 37.84C34.26 40.7 35.1 43.54 36.82 45.76C35.82 47.68 33.82 49 31.5 49C29.9087 49 28.3826 48.3679 27.2574 47.2426C26.1321 46.1174 25.5 44.5913 25.5 43C25.5 41.4087 26.1321 39.8826 27.2574 38.7574C28.3826 37.6321 29.9087 37 31.5 37ZM59.5 37C61.0913 37 62.6174 37.6321 63.7426 38.7574C64.8679 39.8826 65.5 41.4087 65.5 43C65.5 44.5913 64.8679 46.1174 63.7426 47.2426C62.6174 48.3679 61.0913 49 59.5 49C57.18 49 55.18 47.68 54.18 45.76C55.923 43.5085 56.7323 40.6723 56.44 37.84C57.34 37.3 58.38 37 59.5 37ZM32.5 57.5C32.5 53.36 38.32 50 45.5 50C52.68 50 58.5 53.36 58.5 57.5V61H32.5V57.5ZM21.5 61V58C21.5 55.22 25.28 52.88 30.4 52.2C29.22 53.56 28.5 55.44 28.5 57.5V61H21.5ZM69.5 61H62.5V57.5C62.5 55.44 61.78 53.56 60.6 52.2C65.72 52.88 69.5 55.22 69.5 58V61Z" fill="#11C732"/>
</g>
<defs>
<clipPath id="clip0_106_88">
<rect width="48" height="48" fill="white" transform="translate(21.5 21)"/>
</clipPath>
</defs>
</svg>
