<svg width="300" height="300" viewBox="0 0 300 300" fill="none" xmlns="http://www.w3.org/2000/svg">
<rect x="0.5" y="0.5" width="299" height="299" rx="149.5" fill="black" fill-opacity="0.15"/>
<rect x="0.5" y="0.5" width="299" height="299" rx="149.5" stroke="black"/>
<path fill-rule="evenodd" clip-rule="evenodd" d="M133.333 129.167C133.333 124.746 135.089 120.507 138.215 117.382C141.34 114.256 145.58 112.5 150 112.5C154.42 112.5 158.66 114.256 161.785 117.382C164.911 120.507 166.667 124.746 166.667 129.167C166.667 133.587 164.911 137.826 161.785 140.952C158.66 144.077 154.42 145.833 150 145.833C145.58 145.833 141.34 144.077 138.215 140.952C135.089 137.826 133.333 133.587 133.333 129.167ZM133.333 154.167C127.808 154.167 122.509 156.362 118.602 160.269C114.695 164.176 112.5 169.475 112.5 175C112.5 178.315 113.817 181.495 116.161 183.839C118.505 186.183 121.685 187.5 125 187.5H175C178.315 187.5 181.495 186.183 183.839 183.839C186.183 181.495 187.5 178.315 187.5 175C187.5 169.475 185.305 164.176 181.398 160.269C177.491 156.362 172.192 154.167 166.667 154.167H133.333Z" fill="black"/>
</svg>
