<svg width="44" height="44" viewBox="0 0 44 44" fill="none" xmlns="http://www.w3.org/2000/svg">
<rect x="0.5" y="0.5" width="43" height="43" rx="21.5" stroke="white"/>
<path d="M31.333 12.666H12.6663C11.383 12.666 10.3447 13.716 10.3447 14.9993L10.333 28.9993C10.333 30.2827 11.383 31.3327 12.6663 31.3327H31.333C32.6163 31.3327 33.6663 30.2827 33.6663 28.9993V14.9993C33.6663 13.716 32.6163 12.666 31.333 12.666ZM30.8663 17.6243L22.618 22.781C22.2447 23.0143 21.7547 23.0143 21.3813 22.781L13.133 17.6243C13.016 17.5587 12.9136 17.47 12.8319 17.3635C12.7502 17.2571 12.6909 17.1353 12.6577 17.0053C12.6244 16.8753 12.6179 16.7399 12.6385 16.6074C12.6591 16.4748 12.7064 16.3478 12.7775 16.234C12.8486 16.1203 12.9421 16.0221 13.0522 15.9455C13.1623 15.8689 13.2869 15.8154 13.4183 15.7884C13.5496 15.7613 13.6852 15.7611 13.8166 15.788C13.9481 15.8148 14.0727 15.868 14.183 15.9443L21.9997 20.8327L29.8163 15.9443C29.9266 15.868 30.0513 15.8148 30.1827 15.788C30.3142 15.7611 30.4497 15.7613 30.5811 15.7884C30.7125 15.8154 30.837 15.8689 30.9472 15.9455C31.0573 16.0221 31.1507 16.1203 31.2218 16.234C31.2929 16.3478 31.3402 16.4748 31.3608 16.6074C31.3814 16.7399 31.3749 16.8753 31.3417 17.0053C31.3084 17.1353 31.2492 17.2571 31.1675 17.3635C31.0858 17.47 30.9833 17.5587 30.8663 17.6243Z" fill="white"/>
</svg>
