<svg width="91" height="90" viewBox="0 0 91 90" fill="none" xmlns="http://www.w3.org/2000/svg">
<rect x="0.5" width="90" height="90" rx="20" fill="#C74711" fill-opacity="0.4"/>
<g clip-path="url(#clip0_106_90)">
<path d="M39.9615 21C29.8945 21 21.5 27.9231 21.5 36.6923C21.5 41.1785 23.9554 45.0886 27.4428 47.9428C27.2158 49.4588 26.5994 50.89 25.6538 52.0966C25.2678 52.5918 24.8638 53.0727 24.4428 53.5385C24.225 53.7678 24.0313 54.019 23.8649 54.288C23.7597 54.4597 23.5954 54.6517 23.5197 55.0394C23.444 55.4271 23.5474 56.0603 23.8649 56.5385L24.0957 56.9428L24.5572 57.1735C26.1726 57.9803 27.9172 57.8382 29.5197 57.4043C31.1203 56.9686 32.66 56.2228 34.1351 55.4418C35.6102 54.6609 37.0095 53.8468 38.1154 53.2505C38.2705 53.1674 38.3702 53.1471 38.5197 53.0769C41.4311 57.0794 46.7628 59.7692 52.7111 59.7692C52.7683 59.7766 52.8218 59.7692 52.8846 59.7692C55.2846 59.7692 63.0385 67.6966 67.6538 64.5582C67.8385 63.8215 63.596 61.9735 63.3837 56.4812C66.9966 53.928 69.3283 50.1305 69.3283 45.9231C69.3283 39.6978 64.388 34.5545 57.7898 32.712C55.7018 25.9182 48.4428 21 39.9615 21ZM39.9615 24.6923C48.356 24.6923 54.7308 30.3231 54.7308 36.6923C54.7308 43.0615 48.356 48.6923 39.9615 48.6923C38.4625 48.6923 37.6022 49.3052 36.3837 49.9625C35.1652 50.6197 33.7677 51.432 32.4034 52.1538C31.2218 52.7778 30.0957 53.2578 29.0582 53.5957C30.068 52.1372 31.1222 50.2191 31.3068 47.5385L31.3658 46.4991L30.5 45.8658C27.2102 43.56 25.1923 40.2425 25.1923 36.6923C25.1923 30.3231 31.5671 24.6923 39.9615 24.6923Z" fill="#C74711"/>
</g>
<defs>
<clipPath id="clip0_106_90">
<rect width="48" height="48" fill="white" transform="translate(21.5 21)"/>
</clipPath>
</defs>
</svg>
