<svg width="168" height="168" viewBox="0 0 168 168" fill="none" xmlns="http://www.w3.org/2000/svg">
<path fill-rule="evenodd" clip-rule="evenodd" d="M1.24935 27.817C0.666015 30.8837 0.666016 34.567 0.666016 41.917V100.667C0.666016 132.092 0.666015 147.809 10.4327 157.567C20.1994 167.325 35.9077 167.334 67.3327 167.334H100.666C132.091 167.334 147.808 167.334 157.566 157.567C167.324 147.8 167.333 132.092 167.333 100.667V82.317C167.333 60.3837 167.333 49.4087 160.916 42.2837C160.327 41.6262 159.704 41.0003 159.049 40.4087C151.924 34.0003 140.949 34.0003 119.016 34.0003H115.899C106.291 34.0003 101.483 34.0003 96.9994 32.7253C94.539 32.022 92.1678 31.0378 89.9327 29.792C85.866 27.5337 82.466 24.1253 75.666 17.3337L71.0827 12.7503C68.7994 10.467 67.666 9.33366 66.466 8.33366C61.3049 4.05566 54.9738 1.43319 48.2994 0.808659C46.7494 0.666992 45.1327 0.666992 41.916 0.666992C34.5577 0.666992 30.8827 0.666992 27.816 1.25033C21.2313 2.49386 15.1743 5.69313 10.4352 10.4308C5.69612 15.1684 2.49495 21.2327 1.24935 27.817ZM86.0827 67.3337C86.0827 65.6761 86.7412 64.0864 87.9133 62.9142C89.0854 61.7421 90.6751 61.0837 92.3327 61.0837H133.999C135.657 61.0837 137.247 61.7421 138.419 62.9142C139.591 64.0864 140.249 65.6761 140.249 67.3337C140.249 68.9913 139.591 70.581 138.419 71.7531C137.247 72.9252 135.657 73.5837 133.999 73.5837H92.3327C90.6751 73.5837 89.0854 72.9252 87.9133 71.7531C86.7412 70.581 86.0827 68.9913 86.0827 67.3337Z" fill="#41A94E"/>
</svg>
