<svg width="45" height="45" viewBox="0 0 45 45" fill="none" xmlns="http://www.w3.org/2000/svg">
<path d="M22.5003 19.2375C21.7409 19.2375 21.0237 19.0547 20.419 18.7312C20.2081 18.6187 19.9971 18.8578 20.1237 19.0547C20.6299 19.8281 21.5018 20.3484 22.5003 20.3484C23.4987 20.3484 24.3706 19.8281 24.8768 19.0547C25.0034 18.8578 24.7784 18.6328 24.5815 18.7312C23.9768 19.0547 23.2737 19.2375 22.5003 19.2375ZM17.1284 14.4562C17.3393 13.5844 18.1268 12.9375 19.069 12.9375C20.0393 12.9375 20.8549 13.6266 21.0378 14.5547C21.0484 14.6026 21.0481 14.6524 21.0367 14.7001C21.0253 14.7479 21.0032 14.7924 20.972 14.8304C20.9408 14.8683 20.9014 14.8987 20.8568 14.9191C20.8121 14.9396 20.7634 14.9496 20.7143 14.9484H20.6018C20.6299 14.8359 20.644 14.7234 20.644 14.6109C20.644 13.9078 20.0815 13.3312 19.3643 13.3312C19.1675 13.3316 18.9734 13.3772 18.797 13.4646C18.6206 13.5519 18.4667 13.6786 18.3471 13.8349C18.2275 13.9912 18.1454 14.1729 18.1072 14.366C18.069 14.5591 18.0757 14.7584 18.1268 14.9484H17.5081C17.2549 14.9484 17.0721 14.7094 17.1284 14.4562Z" fill="#41A94E"/>
<path d="M20.0948 14.5969C20.0948 14.1891 19.7714 13.8656 19.3636 13.8656C19.2652 13.8651 19.1676 13.8842 19.0767 13.9219C19.111 13.9521 19.1353 13.9921 19.1463 14.0365C19.1573 14.0808 19.1545 14.1275 19.1383 14.1703C19.1221 14.213 19.0933 14.2499 19.0557 14.2758C19.018 14.3018 18.9734 14.3157 18.9276 14.3156C18.8902 14.3156 18.8533 14.3061 18.8204 14.2882C18.7875 14.2703 18.7596 14.2444 18.7392 14.213C18.6736 14.3211 18.6371 14.4443 18.6332 14.5707C18.6292 14.6971 18.658 14.8224 18.7167 14.9344H20.0105C20.0667 14.8359 20.0948 14.7234 20.0948 14.5969ZM27.8855 14.4562C27.6745 13.5844 26.887 12.9375 25.9448 12.9375C24.9605 12.9375 24.1589 13.6266 23.9761 14.5547C23.9339 14.7656 24.0886 14.9484 24.2995 14.9484H24.398C24.3794 14.8582 24.37 14.7663 24.3698 14.6742C24.3679 14.5056 24.3998 14.3384 24.4634 14.1823C24.527 14.0262 24.6212 13.8844 24.7404 13.7651C24.8597 13.6459 25.0015 13.5517 25.1576 13.4881C25.3137 13.4245 25.4809 13.3926 25.6495 13.3945C25.8407 13.3951 26.0294 13.4383 26.2018 13.5211C26.3742 13.6039 26.5258 13.7242 26.6458 13.8731C26.7657 14.022 26.8509 14.1958 26.8951 14.3819C26.9392 14.5679 26.9413 14.7615 26.9011 14.9484H27.5058C27.7589 14.9484 27.9417 14.7094 27.8855 14.4562Z" fill="#41A94E"/>
<path d="M25.3832 13.9148C25.5221 13.8572 25.6754 13.8441 25.822 13.8774C25.9686 13.9107 26.1012 13.9887 26.2015 14.1006C26.3019 14.2125 26.365 14.3529 26.3821 14.5022C26.3993 14.6515 26.3696 14.8025 26.2973 14.9343H25.0035C24.9423 14.8182 24.9134 14.6877 24.9198 14.5566C24.9263 14.4255 24.9678 14.2985 25.0401 14.189C25.0549 14.2192 25.0763 14.2458 25.1028 14.2667C25.1292 14.2876 25.1601 14.3022 25.1929 14.3096C25.2258 14.317 25.2599 14.3169 25.2928 14.3093C25.3256 14.3017 25.3563 14.2869 25.3827 14.2658C25.409 14.2448 25.4303 14.2181 25.4449 14.1878C25.4595 14.1574 25.4671 14.1241 25.4672 14.0904C25.4673 14.0567 25.4597 14.0234 25.4452 13.993C25.4307 13.9626 25.4095 13.9359 25.3832 13.9148Z" fill="#41A94E"/>
<path d="M16.3055 3.62251C16.7315 2.94262 17.3236 2.3824 18.026 1.99465C18.7284 1.60691 19.518 1.40442 20.3203 1.40626C20.9995 1.40626 21.6183 1.54689 22.1794 1.78033L22.2047 1.79017C22.2978 1.83099 22.3983 1.85206 22.5 1.85206C22.6017 1.85206 22.7022 1.83099 22.7953 1.79017L22.8037 1.78736C23.3923 1.53613 24.0257 1.4065 24.6656 1.40626C26.3953 1.40626 27.8859 2.33439 28.7283 3.68579L28.7367 3.69986C28.9856 4.11048 29.4089 4.44517 29.9194 4.61392L29.9348 4.61954C30.5452 4.83048 31.1231 5.16798 31.6181 5.62501H41.2875C41.7797 5.62501 42.1594 6.01876 42.1594 6.49689V34.2563C42.1631 34.3713 42.1437 34.4858 42.1023 34.5932C42.0609 34.7005 41.9983 34.7984 41.9183 34.8811C41.8383 34.9638 41.7424 35.0295 41.6365 35.0743C41.5305 35.1192 41.4166 35.1423 41.3016 35.1422H39.2287C39.3159 35.8383 39.3609 36.547 39.3609 37.2656V40.7813C39.3609 42.331 38.0981 43.5938 36.5484 43.5938H7.03125C6.65829 43.5938 6.3006 43.4456 6.03688 43.1819C5.77316 42.9182 5.625 42.5605 5.625 42.1875V37.2656C5.625 36.5456 5.67 35.8383 5.75719 35.1422H3.68437C3.20625 35.1422 2.8125 34.7485 2.8125 34.2703V6.49689C2.8125 6.01876 3.20625 5.62501 3.68437 5.62501H13.3706C13.86 5.17501 14.4323 4.83329 15.0525 4.61954C15.5588 4.44376 16.0087 4.08939 16.3041 3.62251M24.7584 23.1835C25.7761 22.9918 26.7079 22.4857 27.4226 21.7364C28.1373 20.9871 28.5989 20.0324 28.7423 19.0069L28.852 17.2097C28.8626 17.0411 28.9335 16.882 29.0518 16.7614C29.17 16.6408 29.3278 16.5668 29.4961 16.553C29.6648 16.5389 29.8308 16.4995 29.9855 16.4363C30.0578 16.3919 30.1341 16.3542 30.2133 16.3238C30.4561 16.1784 30.6578 15.9734 30.7993 15.7283C30.9408 15.4832 31.0175 15.206 31.022 14.923C31.0265 14.64 30.9587 14.3605 30.8251 14.111C30.6914 13.8615 30.4964 13.6503 30.2583 13.4972C30.1471 13.4582 30.0412 13.4052 29.9433 13.3397C29.8641 13.3101 29.7828 13.2866 29.7 13.2694C29.6332 13.2558 29.5688 13.2326 29.5087 13.2005C29.5041 13.2203 29.5017 13.2406 29.5017 13.261V14.8219C29.5017 16.3125 28.2923 17.5078 26.8158 17.5078H25.8173C25.428 17.5083 25.0432 17.4239 24.6898 17.2605C24.3365 17.097 24.023 16.8585 23.7712 16.5614L23.8767 16.9031C24.0314 17.3953 23.6658 17.9016 23.1455 17.9016H22.0486C21.5283 17.9016 21.1627 17.3953 21.3173 16.9031L21.4073 16.612C20.9152 17.1619 20.198 17.5078 19.4048 17.5078H18.4064C17.6941 17.5078 17.0109 17.2248 16.5072 16.7211C16.0035 16.2174 15.7205 15.5342 15.7205 14.8219V13.275C15.7187 13.2374 15.7082 13.2007 15.6896 13.168C15.671 13.1352 15.645 13.1074 15.6136 13.0866C15.5119 13.1705 15.3886 13.2241 15.2578 13.2413C15.1794 13.2517 15.1019 13.2676 15.0258 13.2891C14.8864 13.3858 14.7306 13.4563 14.5659 13.4972C14.3288 13.6517 14.1351 13.8642 14.0031 14.1146C13.8712 14.3649 13.8053 14.6448 13.8118 14.9278C13.8182 15.2107 13.8969 15.4873 14.0402 15.7314C14.1835 15.9754 14.3867 16.1788 14.6306 16.3224C14.7572 16.3589 14.8739 16.411 14.9822 16.477C15.1397 16.5263 15.3042 16.5516 15.4716 16.5516C15.6505 16.5512 15.8228 16.6191 15.9535 16.7414C16.0841 16.8636 16.1632 17.0311 16.1747 17.2097L16.2956 19.0505C16.4452 20.0671 16.9082 21.0118 17.62 21.7528C18.3318 22.4939 19.2571 22.9945 20.2669 23.1849H20.3048V23.1905C20.5875 23.2425 20.8758 23.2678 21.1669 23.2692H23.8612C24.1425 23.2692 24.4195 23.2439 24.6909 23.1961V23.1835H24.7584ZM29.1614 11.9391L29.1853 11.3386C29.196 10.9726 29.0624 10.617 28.8132 10.3487C28.5641 10.0803 28.2194 9.92069 27.8536 9.90423H25.8666C25.0563 9.90585 24.2627 9.6741 23.5807 9.2367C22.8986 8.79929 22.357 8.17473 22.0205 7.43767C22.0008 7.38586 21.9663 7.34101 21.9213 7.30873C21.8763 7.27646 21.8227 7.25821 21.7673 7.25626H19.9252C18.8348 7.25733 17.7889 7.68863 17.0148 8.45646C16.2406 9.22428 15.8008 10.2666 15.7908 11.3569L15.8302 11.9475C15.8589 11.9421 15.8881 11.9393 15.9173 11.9391H17.3855C17.3076 11.8921 17.2484 11.8195 17.2181 11.7338C17.192 11.658 17.1901 11.5759 17.2128 11.4991C17.2355 11.4222 17.2816 11.3543 17.3447 11.3049C18.1222 10.7604 19.0752 10.5261 20.0166 10.6481C20.0914 10.6574 20.162 10.6884 20.2194 10.7373C20.2768 10.7863 20.3186 10.851 20.3396 10.9235C20.3605 10.996 20.3598 11.073 20.3373 11.1451C20.3149 11.2171 20.2718 11.281 20.2134 11.3288C20.1742 11.3599 20.129 11.383 20.0808 11.3965C20.0325 11.41 19.9819 11.4138 19.9322 11.4075C19.1726 11.3128 18.4049 11.5021 17.7764 11.9391H20.8125C21.2344 11.9391 21.6281 12.136 21.8953 12.4594C22.0641 12.6703 22.3172 12.7969 22.6125 12.7969C22.9078 12.7969 23.1609 12.6703 23.3297 12.4594C23.5969 12.136 23.9906 11.9391 24.4125 11.9391H27.2419C26.6131 11.5101 25.8503 11.3233 25.0945 11.4131C24.9951 11.421 24.8965 11.39 24.8194 11.3266C24.7424 11.2632 24.6929 11.1724 24.6814 11.0733C24.67 10.9743 24.6974 10.8746 24.7579 10.7953C24.8184 10.716 24.9073 10.6632 25.0059 10.6481C25.9472 10.5286 26.8992 10.7626 27.6778 11.3049C27.727 11.3436 27.766 11.3937 27.7914 11.4509C27.8168 11.5081 27.828 11.5706 27.8238 11.6331C27.8197 11.6955 27.8003 11.756 27.7676 11.8093C27.7348 11.8627 27.6895 11.9072 27.6356 11.9391H29.1614ZM23.1314 14.4985V13.9781C23.1264 13.8431 23.0695 13.7151 22.9726 13.6208C22.8757 13.5266 22.7463 13.4732 22.6111 13.4719C22.3298 13.4719 22.1048 13.6828 22.0908 13.9641V14.4253C22.3017 13.9655 22.9837 13.9894 23.1314 14.4985ZM20.4173 24.6263C20.5618 25.0628 20.8401 25.4428 21.2126 25.7124C21.5852 25.9819 22.0332 26.1273 22.493 26.1279C22.9529 26.1285 23.4013 25.9844 23.7746 25.7158C24.1479 25.4473 24.4272 25.0681 24.5728 24.6319C24.3394 24.66 24.1031 24.6741 23.8655 24.6755H21.1711C20.918 24.6755 20.6648 24.6586 20.4159 24.6263M27.9562 24.2269L29.1375 26.7666C29.2641 27.0099 29.0672 27.2911 28.7691 27.2911H27.2827C26.9423 27.2911 26.7862 27.6638 27.0141 27.8677L27.3023 28.125H29.3034C29.9362 28.125 30.4425 28.6313 30.4425 29.2641V29.3119H30.4509V31.7813H30.4706C31.6322 31.7813 32.58 32.7291 32.58 33.8906V40.7813H36.5456V37.2656C36.5456 31.5703 33.1706 26.671 28.3092 24.4575C28.1806 24.3988 28.0616 24.3211 27.9562 24.2269ZM30.4425 33.1889V34.7175C30.4507 34.8145 30.4386 34.912 30.4072 35.0041C30.3757 35.0961 30.3254 35.1807 30.2596 35.2523C30.1938 35.3239 30.1138 35.3811 30.0248 35.4203C29.9357 35.4594 29.8395 35.4797 29.7422 35.4797H26.1562C26.11 35.4891 26.0629 35.4938 26.0156 35.4938C25.7948 35.4938 25.6402 35.6653 25.6359 35.8341V35.8425C25.6349 35.903 25.6495 35.9628 25.6783 36.016C25.7071 36.0692 25.7492 36.1141 25.8005 36.1463C25.8973 36.2109 25.9765 36.2985 26.0311 36.4013C26.0857 36.5041 26.1139 36.6189 26.1132 36.7353C26.1125 36.8517 26.0829 36.9661 26.0271 37.0682C25.9713 37.1703 25.891 37.257 25.7934 37.3205C25.746 37.3511 25.7069 37.3929 25.6794 37.4422C25.652 37.4915 25.637 37.5467 25.6359 37.6031C25.6359 37.7297 25.695 37.8239 25.7808 37.8774C25.8814 37.9396 25.9647 38.0263 26.023 38.1294C26.0812 38.2325 26.1125 38.3486 26.1139 38.4669C26.1153 38.5853 26.0868 38.7021 26.031 38.8065C25.9752 38.9109 25.894 38.9996 25.7948 39.0642C25.7472 39.0947 25.7078 39.1364 25.6801 39.1857C25.6523 39.235 25.6372 39.2904 25.6359 39.3469C25.6359 39.4735 25.695 39.5677 25.7808 39.6211C25.8781 39.6813 25.9592 39.7644 26.0171 39.8631C26.075 39.9618 26.108 40.0731 26.1131 40.1875C26.1182 40.3018 26.0954 40.4156 26.0465 40.5191C25.9977 40.6226 25.9243 40.7126 25.8328 40.7813H31.1766V33.8906C31.1761 33.7961 31.1566 33.7025 31.1193 33.6156C31.082 33.5287 31.0277 33.4501 30.9595 33.3846C30.8913 33.319 30.8107 33.2678 30.7224 33.234C30.6341 33.2001 30.5398 33.1843 30.4453 33.1875M29.0475 31.7799V29.333H17.0156C16.6911 29.333 16.38 29.4619 16.1505 29.6913C15.9211 29.9208 15.7922 30.2319 15.7922 30.5564C15.7922 30.8809 15.9211 31.1921 16.1505 31.4215C16.38 31.651 16.6911 31.7799 17.0156 31.7799H29.0475ZM25.387 26.0705C25.0423 26.5379 24.5894 26.9148 24.0671 27.169C23.5449 27.4231 22.9688 27.5469 22.3882 27.5298C21.8077 27.5127 21.2399 27.3551 20.7336 27.0706C20.2272 26.7861 19.7974 26.3831 19.4808 25.8961V28.125H25.387V26.0705ZM17.8523 27.8677C18.0787 27.6624 17.9227 27.2911 17.5837 27.2911H16.0959C15.7992 27.2911 15.6009 27.0085 15.7275 26.7652L17.0733 24.1861C16.9564 24.3012 16.8203 24.395 16.6711 24.4631C14.2148 25.5819 12.1323 27.3839 10.6724 29.6541C9.21238 31.9242 8.43655 34.5666 8.4375 37.2656V40.7813H12.4031V33.8906C12.4031 33.2719 12.7041 32.7417 13.0823 32.3817C13.448 32.0358 13.9584 31.7799 14.4984 31.7813V30.7688C14.4984 29.3063 15.6797 28.111 17.1562 28.125H17.5641L17.8523 27.8677ZM14.4984 33.1875C14.3278 33.2025 14.1684 33.279 14.0498 33.4027C13.9792 33.4638 13.9215 33.5385 13.8802 33.6223C13.8389 33.7061 13.8148 33.7974 13.8094 33.8906V40.7813H19.1531C19.0616 40.7126 18.9882 40.6226 18.9394 40.5191C18.8906 40.4156 18.8677 40.3018 18.8728 40.1875C18.878 40.0731 18.9109 39.9618 18.9688 39.8631C19.0267 39.7644 19.1079 39.6813 19.2052 39.6211C19.2511 39.592 19.2886 39.5514 19.314 39.5033C19.3394 39.4552 19.3518 39.4013 19.35 39.3469C19.3487 39.2907 19.3336 39.2357 19.3062 39.1867C19.2787 39.1377 19.2397 39.0961 19.1925 39.0656C19.093 39.0012 19.0114 38.9126 18.9553 38.8081C18.8992 38.7036 18.8704 38.5866 18.8717 38.468C18.8729 38.3494 18.9042 38.2331 18.9625 38.1298C19.0208 38.0265 19.1043 37.9397 19.2052 37.8774C19.2511 37.8482 19.2886 37.8076 19.314 37.7595C19.3394 37.7114 19.3518 37.6575 19.35 37.6031C19.3487 37.547 19.3336 37.492 19.3062 37.443C19.2787 37.3939 19.2397 37.3524 19.1925 37.3219C19.0946 37.2585 19.0141 37.1717 18.9581 37.0695C18.9021 36.9672 18.8724 36.8526 18.8717 36.736C18.871 36.6194 18.8993 36.5044 18.9541 36.4015C19.0088 36.2985 19.0884 36.2108 19.1855 36.1463C19.2367 36.1141 19.2788 36.0692 19.3076 36.016C19.3364 35.9628 19.351 35.903 19.35 35.8425V35.8341C19.3458 35.6653 19.1911 35.4938 18.9703 35.4938C18.9231 35.4938 18.876 35.4891 18.8297 35.4797H15.2241C15.0424 35.4798 14.8676 35.4096 14.7366 35.2838C14.6055 35.158 14.5282 34.9863 14.5209 34.8047H14.5125V33.1875H14.4984ZM11.8913 8.43751H5.625V32.3297H6.35766C7.61497 28.2345 10.3791 24.7688 14.092 22.6322C13.7081 21.8479 13.4504 21.0078 13.3284 20.1431C13.1009 19.6991 12.9497 19.2199 12.8812 18.7256C11.4525 18.0549 10.4991 16.567 10.4991 14.902C10.4991 13.4283 11.2458 12.0924 12.4088 11.34C11.9363 10.4507 11.7552 9.43534 11.8913 8.43751ZM38.6297 32.3297H39.3609V8.43751H33.0919C33.2377 9.48384 33.0314 10.5489 32.5055 11.4652C33.0439 11.8614 33.481 12.3793 33.7814 12.9765C34.0817 13.5738 34.2367 14.2335 34.2337 14.902C34.2383 15.6504 34.044 16.3865 33.6706 17.0351C33.2973 17.6837 32.7583 18.2215 32.1089 18.5935C32.0515 19.1429 31.8927 19.6769 31.6406 20.1685C31.5182 21.0204 31.2644 21.8482 30.8883 22.6224C34.6066 24.7591 37.3739 28.2292 38.6297 32.3297ZM19.2938 17.0016C20.5734 17.0016 21.6141 15.9609 21.6141 14.6813H21.6V13.6688C21.6 12.9797 21.0516 12.4313 20.3625 12.4313H17.4375C16.7484 12.4313 16.2 12.9797 16.2 13.6688V14.6813C16.2 15.9609 17.2406 17.0016 18.5203 17.0016H19.2938ZM26.7188 17.0016C27.9984 17.0016 29.0391 15.9609 29.0391 14.6813V13.6688C29.0391 12.9797 28.4906 12.4313 27.8016 12.4313H24.8625C24.1734 12.4313 23.625 12.9797 23.625 13.6688V14.6813C23.625 15.9609 24.6656 17.0016 25.9453 17.0016H26.7188Z" fill="#41A94E"/>
</svg>
