<svg width="45" height="45" viewBox="0 0 45 45" fill="none" xmlns="http://www.w3.org/2000/svg">
<path d="M22.6824 19.2516C21.923 19.2516 21.2058 19.0688 20.6011 18.7453C20.3902 18.6328 20.1792 18.8719 20.3058 19.0688C20.812 19.8422 21.6839 20.3625 22.6824 20.3625C23.6808 20.3625 24.5527 19.8422 25.0589 19.0688C25.1855 18.8719 24.9605 18.6469 24.7636 18.7453C24.1589 19.0688 23.4558 19.2516 22.6824 19.2516ZM21.5011 16.9031L22.2464 14.4984C22.4011 13.9781 23.1605 13.9781 23.3152 14.4984L24.0605 16.9031C24.2152 17.3953 23.8495 17.9016 23.3292 17.9016H22.2324C21.712 17.9016 21.3464 17.3953 21.5011 16.9031ZM19.2427 12.9375C18.3005 12.9375 17.513 13.5844 17.288 14.4562C17.2317 14.7094 17.4286 14.9484 17.6817 14.9484H18.3089C18.2578 14.7584 18.2511 14.5591 18.2893 14.366C18.3275 14.1729 18.4096 13.9912 18.5292 13.8349C18.6488 13.6786 18.8027 13.5519 18.9791 13.4646C19.1555 13.3772 19.3496 13.3316 19.5464 13.3312C19.7431 13.3322 19.9369 13.3782 20.1129 13.4657C20.289 13.5532 20.4427 13.6798 20.5622 13.836C20.6817 13.9922 20.7638 14.1736 20.8023 14.3665C20.8407 14.5593 20.8344 14.7584 20.7839 14.9484H20.888C21.0989 14.9484 21.2536 14.7656 21.2114 14.5547C21.0286 13.6406 20.213 12.9375 19.2427 12.9375ZM26.1192 12.9375C27.0614 12.9375 27.8489 13.5844 28.0739 14.4562C28.1302 14.7094 27.9474 14.9484 27.6942 14.9484H27.0699C27.121 14.7584 27.1277 14.5591 27.0895 14.366C27.0513 14.1729 26.9692 13.9912 26.8496 13.8349C26.73 13.6786 26.576 13.5519 26.3997 13.4646C26.2233 13.3772 26.0292 13.3316 25.8324 13.3312C25.6638 13.3294 25.4965 13.3612 25.3404 13.4248C25.1843 13.4885 25.0425 13.5827 24.9233 13.7019C24.8041 13.8211 24.7099 13.9629 24.6462 14.119C24.5826 14.2751 24.5508 14.4424 24.5527 14.6109C24.5527 14.7234 24.5667 14.8359 24.5949 14.9484H24.488C24.4389 14.9496 24.3902 14.9396 24.3455 14.9191C24.3009 14.8987 24.2615 14.8683 24.2303 14.8304C24.1991 14.7924 24.177 14.7479 24.1656 14.7001C24.1542 14.6524 24.1539 14.6026 24.1645 14.5547C24.3333 13.6406 25.1349 12.9375 26.1192 12.9375Z" fill="#41A94E"/>
<path d="M19.5472 13.8792C19.6733 13.8779 19.7976 13.9095 19.9078 13.9708C20.0179 14.0322 20.1102 14.1212 20.1755 14.2291C20.2408 14.337 20.2769 14.46 20.2801 14.5861C20.2834 14.7121 20.2537 14.8369 20.1941 14.948H18.9004C18.8417 14.836 18.8129 14.7107 18.8168 14.5843C18.8208 14.4579 18.8573 14.3347 18.9229 14.2266C18.9403 14.2536 18.9634 14.2766 18.9904 14.2939C19.0175 14.3113 19.048 14.3227 19.0798 14.3272C19.1117 14.3318 19.1441 14.3295 19.175 14.3205C19.2059 14.3115 19.2345 14.2959 19.2588 14.2749C19.2832 14.2539 19.3028 14.2279 19.3162 14.1987C19.3297 14.1695 19.3367 14.1377 19.3369 14.1055C19.337 14.0734 19.3303 14.0415 19.3171 14.0122C19.3039 13.9829 19.2845 13.9567 19.2604 13.9355C19.3513 13.8978 19.4488 13.8787 19.5472 13.8792ZM25.8332 13.8792C25.7418 13.879 25.6513 13.8957 25.566 13.9284C25.592 13.9496 25.6129 13.9764 25.6272 14.0067C25.6415 14.037 25.6489 14.0701 25.6488 14.1036C25.6487 14.1372 25.6411 14.1703 25.6265 14.2005C25.612 14.2307 25.5908 14.2572 25.5647 14.2782C25.5386 14.2992 25.5081 14.3141 25.4754 14.3218C25.4428 14.3295 25.4089 14.3298 25.3761 14.3227C25.3433 14.3156 25.3126 14.3013 25.286 14.2807C25.2595 14.2602 25.238 14.234 25.2229 14.2041C25.1507 14.3134 25.1092 14.4402 25.1028 14.571C25.0963 14.7019 25.1252 14.8321 25.1863 14.948H26.48C26.5397 14.8369 26.5693 14.7121 26.5661 14.5861C26.5628 14.46 26.5268 14.337 26.4615 14.2291C26.3962 14.1212 26.3039 14.0322 26.1937 13.9708C26.0835 13.9095 25.9593 13.8779 25.8332 13.8792ZM17.7669 11.9892C17.687 11.989 17.6091 11.9639 17.5441 11.9174C17.479 11.8709 17.4301 11.8053 17.4039 11.7298C17.3778 11.6542 17.3759 11.5724 17.3983 11.4957C17.4208 11.419 17.4665 11.3511 17.5293 11.3016C18.3068 10.7571 19.2598 10.5228 20.2011 10.6449C20.2757 10.6543 20.3459 10.6854 20.403 10.7343C20.4601 10.7831 20.5017 10.8476 20.5226 10.9198C20.5435 10.992 20.5429 11.0687 20.5207 11.1406C20.4986 11.2124 20.456 11.2762 20.398 11.3241C20.3588 11.3554 20.3137 11.3787 20.2655 11.3924C20.2172 11.4062 20.1666 11.4102 20.1168 11.4042C19.3765 11.3117 18.6277 11.4889 18.0074 11.9034C17.9393 11.9585 17.8545 11.9888 17.7669 11.9892ZM27.6233 11.9892C27.539 11.9892 27.4546 11.9611 27.3885 11.9091C26.7665 11.4985 26.0191 11.3216 25.2791 11.4099C25.1797 11.4177 25.081 11.3867 25.004 11.3233C24.927 11.2599 24.8775 11.1692 24.866 11.0701C24.8545 10.971 24.8819 10.8713 24.9425 10.792C25.003 10.7127 25.0919 10.6599 25.1905 10.6449C26.1317 10.5253 27.0838 10.7593 27.8624 11.3016C27.9252 11.3512 27.971 11.4192 27.9934 11.496C28.0159 11.5729 28.0138 11.6548 27.9875 11.7304C27.9612 11.8061 27.912 11.8716 27.8467 11.918C27.7815 11.9644 27.7034 11.9893 27.6233 11.9892Z" fill="#41A94E"/>
<path d="M11.4469 2.10938C10.44 2.10938 9.61876 2.93062 9.61876 3.9375C9.61876 4.94438 10.44 5.76562 11.4469 5.76562H14.0428L13.6913 6.49687C13.5084 6.71062 13.3453 6.94687 13.2061 7.2L13.2019 7.20844C12.8558 7.86669 12.6964 8.60704 12.7407 9.34938C12.7851 10.0917 13.0316 10.8078 13.4536 11.4202L13.4564 11.4258C13.6252 11.6677 13.7095 11.9489 13.7095 12.2625V12.6422C13.3985 12.9285 13.1503 13.2764 12.9809 13.6637C12.8114 14.0511 12.7243 14.4694 12.7252 14.8922C12.7252 15.7809 13.1063 16.5797 13.7095 17.1366V18.1266C13.7095 19.6791 14.6616 21.0727 16.1002 21.6323C16.2309 21.8433 16.3716 22.043 16.5234 22.2342C15.0311 22.8289 13.6358 23.6427 12.3834 24.6488C12.3035 24.6765 12.2291 24.7184 12.1641 24.7725C9.63452 26.8834 7.80786 29.7146 6.92719 32.8894C6.52847 34.3139 6.3269 35.7864 6.32813 37.2656V42.1875C6.32813 42.374 6.40221 42.5528 6.53407 42.6847C6.66593 42.8165 6.84478 42.8906 7.03126 42.8906H37.9547C38.1412 42.8906 38.32 42.8165 38.4519 42.6847C38.5837 42.5528 38.6578 42.374 38.6578 42.1875V37.2459C38.6603 34.969 38.1799 32.7175 37.2483 30.6399C36.3168 28.5623 34.9553 26.7058 33.2536 25.193C31.9594 24.0368 30.4874 23.0966 28.8942 22.4086C29.1389 22.1231 29.3583 21.8152 29.5481 21.4875C30.1693 21.1729 30.6911 20.6922 31.0555 20.0989C31.42 19.5056 31.6128 18.8229 31.6125 18.1266V17.1492C31.9273 16.8625 32.1787 16.5132 32.3507 16.1237C32.5228 15.7342 32.6116 15.3131 32.6116 14.8873C32.6116 14.4615 32.5228 14.0404 32.3507 13.6509C32.1787 13.2614 31.9273 12.9121 31.6125 12.6253V12.2625C31.6125 11.977 31.7053 11.6817 31.8797 11.4286C32.3972 10.7029 32.6582 9.82557 32.6215 8.93505C32.5848 8.04454 32.2526 7.1916 31.6772 6.51094L31.3172 5.76562H33.2016V16.0622C32.8461 16.3763 32.6201 16.8113 32.5673 17.2827C32.5146 17.7541 32.6389 18.2282 32.9161 18.6131C32.7953 18.7838 32.7028 18.9728 32.6419 19.1728L32.6363 19.1925L31.8206 22.1555C31.7684 22.3386 31.7594 22.5314 31.7943 22.7187C31.8293 22.9059 31.9072 23.0825 32.022 23.2345C32.1368 23.3865 32.2853 23.5098 32.4558 23.5946C32.6263 23.6795 32.8142 23.7236 33.0047 23.7234H35.9156C36.7327 23.7234 37.3219 22.9416 37.0997 22.1569L36.2981 19.1953C36.2368 18.9889 36.1418 18.7941 36.0169 18.6187C36.2961 18.2333 36.4216 17.7576 36.3688 17.2846C36.316 16.8115 36.0888 16.3752 35.7314 16.0608V3.9375C35.7319 3.87778 35.7248 3.81824 35.7103 3.76031C35.6654 3.30861 35.4544 2.88967 35.1182 2.58466C34.782 2.27965 34.3446 2.11028 33.8906 2.10938H11.4469ZM30.6127 16.1564C30.354 16.372 30.0355 16.5031 29.7 16.5319L29.0925 16.5825L28.9519 18.9731C28.7941 20.1425 28.2179 21.2151 27.3301 21.9923C26.4422 22.7695 25.3028 23.1987 24.1228 23.2003H21.4509C20.2783 23.2 19.1452 22.777 18.2592 22.0088C17.3733 21.2407 16.794 20.1788 16.6275 19.0181L16.4419 16.5333H15.7838C15.3653 16.5326 14.9628 16.3725 14.6582 16.0856C14.3536 15.7986 14.1697 15.4064 14.1441 14.9887C14.1185 14.571 14.253 14.1593 14.5202 13.8372C14.7875 13.5152 15.1674 13.3071 15.5827 13.2553L16.2436 13.1752L16.1213 11.3639C16.1331 10.3167 16.5446 9.31365 17.2716 8.55984L20.4103 9.07313H20.4202C21.503 9.23344 22.5998 9.27562 23.6925 9.19828C24.3989 9.69756 25.242 9.96712 26.107 9.97031H28.0758C28.4371 9.98676 28.7775 10.1446 29.0235 10.4098C29.2695 10.675 29.4013 11.0263 29.3906 11.3878L29.3077 13.1583L29.9011 13.2834C30.2001 13.3472 30.4755 13.493 30.6962 13.7045C30.917 13.916 31.0745 14.1848 31.151 14.4808C31.2275 14.7768 31.2201 15.0883 31.1294 15.3803C31.0388 15.6723 30.8686 15.9332 30.638 16.1339L30.6127 16.1564ZM16.1719 34.7906C16.1719 34.3969 16.4813 34.0875 16.875 34.0875C17.2688 34.0875 17.5781 34.3969 17.5781 34.7906V41.4844H16.1719V34.7906ZM21.7969 34.7906C21.7969 34.3969 22.1063 34.0875 22.5 34.0875C22.8938 34.0875 23.2031 34.3969 23.2031 34.7906V41.4844H21.7969V34.7906ZM27.4219 34.7906C27.4219 34.3969 27.7313 34.0875 28.125 34.0875C28.5188 34.0875 28.8281 34.3969 28.8281 34.7906V41.4844H27.4219V34.7906ZM21.1922 25.7063C20.8014 25.3531 20.4704 24.939 20.212 24.48C20.617 24.563 21.0319 24.6066 21.4509 24.6066H24.1228C24.3211 24.6066 24.5194 24.5953 24.7134 24.577C24.4661 24.9981 24.156 25.3788 23.7938 25.7063L22.8797 26.5219C22.6547 26.7188 22.3313 26.7188 22.1063 26.5219L21.1922 25.7063ZM34.2281 17.0494C34.322 17.0007 34.4037 16.9315 34.4672 16.8469C34.5306 16.9315 34.6124 17.0007 34.7063 17.0494C34.7909 17.0944 34.861 17.1624 34.9085 17.2457C34.956 17.329 34.9788 17.424 34.9744 17.5198C34.97 17.6155 34.9385 17.708 34.8835 17.7866C34.8286 17.8651 34.7525 17.9264 34.6641 17.9634C34.5922 17.9926 34.5257 18.0335 34.4672 18.0844C34.4096 18.0332 34.3441 17.9919 34.2731 17.962C34.1849 17.9252 34.109 17.8641 34.0541 17.7858C33.9991 17.7076 33.9675 17.6154 33.9628 17.5199C33.9581 17.4244 33.9805 17.3296 34.0275 17.2463C34.0744 17.163 34.144 17.0947 34.2281 17.0494ZM34.2703 19.2614C34.3417 19.2321 34.4077 19.1912 34.4658 19.1405C34.5226 19.1908 34.5872 19.2317 34.657 19.2614C34.7878 19.3162 34.8961 19.4302 34.9467 19.5778L35.6864 22.3172H33.2353L33.9891 19.575C34.0102 19.5053 34.0463 19.4412 34.0949 19.387C34.1435 19.3328 34.2034 19.2899 34.2703 19.2614Z" fill="#41A94E"/>
</svg>
