<svg width="44" height="44" viewBox="0 0 44 44" fill="none" xmlns="http://www.w3.org/2000/svg">
<rect x="0.5" y="0.5" width="43" height="43" rx="21.5" stroke="white"/>
<path d="M18.208 19.6667C18.208 18.6611 18.6075 17.6966 19.3186 16.9856C20.0296 16.2745 20.9941 15.875 21.9997 15.875C23.0053 15.875 23.9697 16.2745 24.6808 16.9856C25.3919 17.6966 25.7913 18.6611 25.7913 19.6667C25.7913 20.6723 25.3919 21.6367 24.6808 22.3478C23.9697 23.0589 23.0053 23.4583 21.9997 23.4583C20.9941 23.4583 20.0296 23.0589 19.3186 22.3478C18.6075 21.6367 18.208 20.6723 18.208 19.6667Z" fill="white"/>
<path fill-rule="evenodd" clip-rule="evenodd" d="M12.4032 18.3565C12.5973 16.0112 13.6658 13.8245 15.3968 12.2303C17.1279 10.6361 19.3949 9.75077 21.7482 9.75H22.2522C24.6055 9.75077 26.8726 10.6361 28.6036 12.2303C30.3346 13.8245 31.4031 16.0112 31.5972 18.3565C31.8126 20.975 31.0042 23.5749 29.342 25.6097L23.7502 32.4487C23.5383 32.7081 23.2713 32.9171 22.9686 33.0607C22.666 33.2042 22.3352 33.2787 22.0002 33.2787C21.6652 33.2787 21.3344 33.2042 21.0318 33.0607C20.7291 32.9171 20.4622 32.7081 20.2502 32.4487L14.6595 25.6097C12.997 23.5751 12.1882 20.9751 12.4032 18.3565ZM22.0002 14.125C20.5305 14.125 19.1209 14.7089 18.0817 15.7481C17.0424 16.7874 16.4585 18.1969 16.4585 19.6667C16.4585 21.1364 17.0424 22.546 18.0817 23.5852C19.1209 24.6245 20.5305 25.2083 22.0002 25.2083C23.4699 25.2083 24.8795 24.6245 25.9188 23.5852C26.958 22.546 27.5419 21.1364 27.5419 19.6667C27.5419 18.1969 26.958 16.7874 25.9188 15.7481C24.8795 14.7089 23.4699 14.125 22.0002 14.125Z" fill="white"/>
</svg>
