<svg width="60" height="84" viewBox="0 0 60 84" fill="none" xmlns="http://www.w3.org/2000/svg">
<path d="M50.8427 47.1826V80.5201C50.8432 81.0932 50.686 81.6555 50.3885 82.1453C50.0909 82.6351 49.6643 83.0336 49.1555 83.2973C48.6466 83.561 48.075 83.6797 47.5032 83.6403C46.9315 83.601 46.3815 83.4052 45.9135 83.0743L30.0052 71.8784L14.1052 83.0743C13.6373 83.404 13.0877 83.5989 12.5166 83.6376C11.9455 83.6763 11.3747 83.5574 10.8665 83.2939C10.3583 83.0303 9.93232 82.6323 9.63495 82.1431C9.33758 81.654 9.18027 81.0926 9.18021 80.5201L9.17188 47.1868C15.079 51.9291 22.43 54.5093 30.0052 54.4993C37.5809 54.5081 44.932 51.9264 50.8385 47.1826" fill="url(#paint0_radial_247_900)"/>
<path d="M30.0007 0.333008C37.7361 0.333008 45.1548 3.40592 50.6246 8.87573C56.0944 14.3455 59.1673 21.7642 59.1673 29.4997C59.1673 37.2352 56.0944 44.6538 50.6246 50.1236C45.1548 55.5934 37.7361 58.6663 30.0007 58.6663C22.2652 58.6663 14.8465 55.5934 9.3767 50.1236C3.90689 44.6538 0.833984 37.2352 0.833984 29.4997C0.833984 21.7642 3.90689 14.3455 9.3767 8.87573C14.8465 3.40592 22.2652 0.333008 30.0007 0.333008Z" fill="url(#paint1_radial_247_900)"/>
<path d="M30.9555 15.5082L34.7555 23.229L43.2722 24.4582C44.1472 24.5832 44.493 25.6582 43.8639 26.2707L37.7014 32.2707L39.1597 40.754C39.194 40.95 39.1725 41.1517 39.0977 41.3362C39.0229 41.5206 38.8979 41.6803 38.7368 41.7971C38.5757 41.9139 38.385 41.9831 38.1865 41.9969C37.9879 42.0106 37.7895 41.9683 37.6139 41.8748L30.0014 37.8665L22.3889 41.8748C22.2133 41.9672 22.0154 42.0085 21.8176 41.9942C21.6198 41.9799 21.4299 41.9105 21.2695 41.7939C21.109 41.6772 20.9845 41.518 20.9098 41.3342C20.8352 41.1505 20.8135 40.9495 20.8472 40.754L22.3055 32.2748L16.1389 26.2748C15.9956 26.1364 15.8941 25.9606 15.8459 25.7672C15.7978 25.5739 15.805 25.3709 15.8667 25.1815C15.9284 24.9921 16.0421 24.8238 16.1948 24.6959C16.3476 24.568 16.5332 24.4856 16.7305 24.4582L25.243 23.229L29.0472 15.5082C29.1347 15.3297 29.2704 15.1792 29.4391 15.0741C29.6078 14.9689 29.8026 14.9131 30.0014 14.9131C30.2002 14.9131 30.395 14.9689 30.5636 15.0741C30.7323 15.1792 30.8681 15.3297 30.9555 15.5082Z" fill="url(#paint2_radial_247_900)"/>
<defs>
<radialGradient id="paint0_radial_247_900" cx="0" cy="0" r="1" gradientUnits="userSpaceOnUse" gradientTransform="translate(30.0052 41.4993) rotate(90) scale(57.4763 91.9829)">
<stop stop-color="#163697"/>
<stop offset="1" stop-color="#29C3FF"/>
</radialGradient>
<radialGradient id="paint1_radial_247_900" cx="0" cy="0" r="1" gradientUnits="userSpaceOnUse" gradientTransform="translate(-125.207 -203.836) rotate(56.615) scale(325.602 278.863)">
<stop offset="0.772" stop-color="#FFCD0F"/>
<stop offset="0.991" stop-color="#E67505"/>
</radialGradient>
<radialGradient id="paint2_radial_247_900" cx="0" cy="0" r="1" gradientUnits="userSpaceOnUse" gradientTransform="translate(37.093 41.9998) rotate(-106.66) scale(49.4725 71.3754)">
<stop stop-color="#B03111"/>
<stop offset="1" stop-color="#E67505"/>
</radialGradient>
</defs>
</svg>
