<svg width="91" height="90" viewBox="0 0 91 90" fill="none" xmlns="http://www.w3.org/2000/svg">
<rect x="0.5" width="90" height="90" rx="20" fill="#FABC14" fill-opacity="0.4"/>
<path d="M63.5 41.126V29C63.5 28.4696 63.2893 27.9609 62.9142 27.5858C62.5391 27.2107 62.0304 27 61.5 27H59.5C55.542 30.958 48.106 33.174 43.5 34.226V55.774C48.106 56.826 55.542 59.042 59.5 63H61.5C62.0304 63 62.5391 62.7893 62.9142 62.4142C63.2893 62.0391 63.5 61.5304 63.5 61V48.874C64.3595 48.653 65.1211 48.1524 65.665 47.4511C66.2088 46.7498 66.5039 45.8875 66.5039 45C66.5039 44.1125 66.2088 43.2502 65.665 42.5489C65.1211 41.8476 64.3595 41.347 63.5 41.126ZM31.5 35C30.4391 35 29.4217 35.4214 28.6716 36.1716C27.9214 36.9217 27.5 37.9391 27.5 39V51C27.5 52.0609 27.9214 53.0783 28.6716 53.8284C29.4217 54.5786 30.4391 55 31.5 55H33.5L35.5 65H39.5V35H31.5Z" fill="#FABC14"/>
</svg>
