<svg width="91" height="90" viewBox="0 0 91 90" fill="none" xmlns="http://www.w3.org/2000/svg">
<rect x="0.5" width="90" height="90" rx="20" fill="#1129C7" fill-opacity="0.4"/>
<path d="M40.46 27.9378C37.0728 26.3207 32.3384 25.5285 26 25.5003C25.4022 25.4922 24.8162 25.6665 24.32 26C23.9127 26.2753 23.5794 26.6464 23.3492 27.0808C23.119 27.5151 22.9991 27.9994 23 28.491V55.3128C23 57.126 24.29 58.4938 26 58.4938C32.6628 58.4938 39.3463 59.1163 43.3494 62.9C43.4041 62.952 43.473 62.9868 43.5473 63C43.6217 63.0132 43.6983 63.0043 43.7676 62.9743C43.8369 62.9443 43.8959 62.8947 43.9372 62.8315C43.9785 62.7682 44.0004 62.6943 44 62.6188V31.0147C44.0001 30.8015 43.9545 30.5907 43.8662 30.3967C43.7779 30.2026 43.6489 30.0297 43.4881 29.8897C42.5712 29.1058 41.5526 28.4493 40.46 27.9378ZM66.68 25.9972C66.1836 25.6645 65.5975 25.4912 65 25.5003C58.6616 25.5285 53.9272 26.3169 50.54 27.9378C49.4475 28.4483 48.4286 29.1036 47.5109 29.886C47.3504 30.0262 47.2218 30.1991 47.1337 30.3931C47.0455 30.5872 47 30.7979 47 31.011V62.6169C47 62.6895 47.0213 62.7604 47.0615 62.8209C47.1016 62.8813 47.1587 62.9286 47.2256 62.9567C47.2925 62.9849 47.3662 62.9926 47.4375 62.979C47.5087 62.9655 47.5744 62.9311 47.6263 62.8803C50.0328 60.4897 54.2563 58.491 65.0038 58.4919C65.7994 58.4919 66.5625 58.1758 67.1251 57.6132C67.6877 57.0506 68.0038 56.2876 68.0038 55.4919V28.4919C68.0049 27.9994 67.8847 27.5141 67.6538 27.0791C67.4229 26.644 67.0885 26.2724 66.68 25.9972Z" fill="#1129C7"/>
</svg>
