<svg width="60" height="43" viewBox="0 0 60 43" fill="none" xmlns="http://www.w3.org/2000/svg">
<path d="M15.9248 22.6373C17.2961 22.6373 18.2935 22.8243 18.9168 23.1983C20.4128 24.0709 21.7218 25.2553 22.8438 26.7513C23.9658 28.1226 24.5268 30.1173 24.5268 32.7353C24.2775 36.7246 22.7191 39.4673 19.8518 40.9633C17.3585 42.2099 13.9925 42.8333 9.7538 42.8333C6.88646 42.8333 4.58013 41.7736 2.8348 39.6543C1.08946 37.5349 0.216797 34.8546 0.216797 31.6133C0.216797 27.8733 1.27646 23.5723 3.3958 18.7103C5.6398 13.7236 7.82146 9.92127 9.9408 7.30326C11.4368 5.3086 13.2445 3.6256 15.3638 2.25426C17.4831 0.882931 19.2908 0.197266 20.7868 0.197266C23.6541 0.197266 25.3995 0.633597 26.0228 1.50626C26.7708 2.37893 27.1448 4.06193 27.1448 6.55526C27.1448 7.17859 26.5215 8.1136 25.2748 9.36027C24.1528 10.4823 23.4671 11.1679 23.2178 11.4173C21.2231 13.1626 19.9765 14.4093 19.4778 15.1573C17.3585 18.1493 15.9248 20.6426 15.1768 22.6373H15.9248ZM48.2758 22.6373C49.7718 22.6373 50.8315 22.8243 51.4548 23.1983C52.9508 24.1956 54.1975 25.3799 55.1948 26.7513C56.3168 28.1226 56.8778 30.1173 56.8778 32.7353C56.6285 36.7246 55.1325 39.4673 52.3898 40.9633C49.8965 42.2099 46.5305 42.8333 42.2918 42.8333C39.4245 42.8333 37.1181 41.7736 35.3728 39.6543C33.6275 37.5349 32.7548 34.8546 32.7548 31.6133C32.7548 27.8733 33.8145 23.5723 35.9338 18.7103C38.1778 13.7236 40.3595 9.92127 42.4788 7.30326C44.0995 5.3086 45.9071 3.6256 47.9018 2.25426C49.8965 0.882931 51.6418 0.197266 53.1378 0.197266C56.1298 0.197266 57.9375 0.633597 58.5608 1.50626C59.3088 2.37893 59.6828 4.06193 59.6828 6.55526C59.6828 7.5526 58.2491 9.2356 55.3818 11.6043C54.8831 12.1029 54.2598 12.7263 53.5118 13.4743C52.7638 14.0976 52.2028 14.6586 51.8288 15.1573C49.9588 17.7753 48.5875 20.2686 47.7148 22.6373H48.2758Z" fill="#41A94E" fill-opacity="0.9"/>
</svg>
